<?xml version="1.0" encoding="UTF-8"?>
<svg version="1.1" xmlns="http://www.w3.org/2000/svg" width="512" height="512">
<path d="M0 0 C1.3365287 -0.01469078 1.3365287 -0.01469078 2.70005798 -0.02967834 C22.60828118 -0.20334589 41.90456474 -0.03544421 61.4453125 4.23828125 C62.92451172 4.55974121 62.92451172 4.55974121 64.43359375 4.88769531 C113.29447026 15.88619536 161.14969796 42.34158506 193.4453125 81.23828125 C194.22777344 82.1096875 195.01023437 82.98109375 195.81640625 83.87890625 C224.76774894 116.38002403 243.92344787 159.36421165 250.4453125 202.23828125 C250.62046387 203.358396 250.79561523 204.47851074 250.97607422 205.63256836 C252.5800588 216.94273439 252.84456538 228.13833039 252.8203125 239.55078125 C252.81949677 240.99969254 252.81949677 240.99969254 252.81866455 242.47787476 C252.67723335 297.28359543 233.91294268 351.1405859 198.4453125 393.23828125 C198.00074707 393.77163086 197.55618164 394.30498047 197.09814453 394.85449219 C188.22536736 405.48522354 179.07675597 415.36819695 168.21484375 424.02734375 C166.40012249 425.47604929 164.60476024 426.94942113 162.83203125 428.44921875 C121.52207816 463.33317913 66.69507132 480.72710773 13.1328125 480.61328125 C12.16687164 480.61273743 11.20093079 480.6121936 10.20571899 480.6116333 C-5.69146444 480.57060916 -20.9742443 479.64585488 -36.5546875 476.23828125 C-37.54082031 476.02397461 -38.52695313 475.80966797 -39.54296875 475.58886719 C-80.68601851 466.32763679 -118.66455293 447.01341561 -149.5546875 418.23828125 C-150.94613416 417.02489906 -152.34177389 415.81630322 -153.7421875 414.61328125 C-160.23579506 408.92488103 -165.82997583 402.84849748 -171.23828125 396.11328125 C-172.72964128 394.26228465 -174.24130496 392.42737276 -175.77734375 390.61328125 C-186.48593264 377.92162035 -194.84788293 363.9027082 -202.5546875 349.23828125 C-202.90241211 348.58762695 -203.25013672 347.93697266 -203.60839844 347.26660156 C-214.77726192 326.11658788 -221.86063665 301.78641992 -225.5546875 278.23828125 C-225.73725098 277.08271729 -225.91981445 275.92715332 -226.10791016 274.73657227 C-227.70824137 263.46656388 -227.95385383 252.29750635 -227.9296875 240.92578125 C-227.92914368 239.95984039 -227.92859985 238.99389954 -227.92803955 237.99868774 C-227.88701541 222.10150431 -226.96226113 206.81872445 -223.5546875 191.23828125 C-223.34038086 190.25214844 -223.12607422 189.26601562 -222.90527344 188.25 C-213.64404304 147.10695024 -194.32982186 109.12841582 -165.5546875 78.23828125 C-164.34130531 76.84683459 -163.13270947 75.45119486 -161.9296875 74.05078125 C-123.06882078 29.561789 -58.92264626 0.53778818 0 0 Z M-83.5546875 38.23828125 C-80.17753137 42.22113685 -80.17753137 42.22113685 -75.3671875 43.48828125 C-70.93543261 42.50558777 -67.62191483 39.60240845 -64.03125 36.9609375 C-58.10579388 32.83928742 -51.76285175 31.03692054 -44.5546875 32.23828125 C-40.02046676 34.50539162 -37.81718034 36.76371324 -35.5546875 41.23828125 C-34.89453125 44.5 -34.89453125 44.5 -34.4921875 47.92578125 C-34.14287801 52.60759522 -34.14287801 52.60759522 -31.5546875 56.23828125 C-28.04673194 56.58952141 -24.55821024 56.68179104 -21.03515625 56.796875 C-17.29947435 57.27064835 -15.42241158 57.81332965 -12.5546875 60.23828125 C-9.95576892 66.54649403 -10.44444205 72.29466194 -10.7421875 78.98828125 C-10.77376953 80.1175 -10.80535156 81.24671875 -10.83789062 82.41015625 C-11.19794778 91.42723988 -11.9976689 100.91583749 -18.63693237 107.65615845 C-25.02082684 112.92278757 -32.7408797 113.81885775 -40.71875 113.62890625 C-41.63683441 113.62324646 -42.55491882 113.61758667 -43.50082397 113.61175537 C-46.3943398 113.589606 -49.28655461 113.53945296 -52.1796875 113.48828125 C-54.15753403 113.46818843 -56.13540023 113.44994258 -58.11328125 113.43359375 C-62.92757428 113.389812 -67.74091139 113.32093756 -72.5546875 113.23828125 C-72.40757688 114.67836477 -72.25680558 116.11807465 -72.10449219 117.55761719 C-71.97914093 118.76028229 -71.97914093 118.76028229 -71.85125732 119.98724365 C-70.92723543 127.00079611 -67.95064107 132.74165328 -62.5546875 137.23828125 C-60.55604994 136.65883193 -60.55604994 136.65883193 -58.5546875 135.23828125 C-57.83761768 133.2557941 -57.17178337 131.25412776 -56.5546875 129.23828125 C-54.94050591 127.28781183 -53.81431364 126.36809432 -51.5546875 125.23828125 C-47.49736627 124.99381481 -43.4310394 125.05307074 -39.3671875 125.05078125 C-38.24248047 125.03853516 -37.11777344 125.02628906 -35.95898438 125.01367188 C-24.41129675 124.99330558 -24.41129675 124.99330558 -19.5546875 127.23828125 C-15.33988663 131.51446272 -15.08175674 135.42793712 -15.10546875 141.14648438 C-15.12996094 142.10490234 -15.15445313 143.06332031 -15.1796875 144.05078125 C-15.18162109 145.47100586 -15.18162109 145.47100586 -15.18359375 146.91992188 C-15.35737905 160.94825724 -15.35737905 160.94825724 -19 166.40234375 C-19.83144531 167.12550781 -19.83144531 167.12550781 -20.6796875 167.86328125 C-21.30359375 168.42402344 -21.9275 168.98476562 -22.5703125 169.5625 C-23.22515625 170.11550781 -23.88 170.66851562 -24.5546875 171.23828125 C-25.50601563 172.08326172 -25.50601563 172.08326172 -26.4765625 172.9453125 C-27.12109375 173.51636719 -27.765625 174.08742187 -28.4296875 174.67578125 C-29.0896875 175.26488281 -29.7496875 175.85398438 -30.4296875 176.4609375 C-32.5546875 178.23828125 -32.5546875 178.23828125 -34.9921875 179.859375 C-39.61990072 183.17147725 -39.61990072 183.17147725 -42.06152344 188.17431641 C-42.51469297 191.17236234 -42.78394517 194.12833459 -42.86279297 197.15966797 C-43.01134935 201.03531937 -43.4045789 203.03390678 -45.7265625 206.1953125 C-50.8700916 209.91087288 -55.56302059 209.21056196 -61.58398438 208.76489258 C-71.3188816 208.17215818 -71.3188816 208.17215818 -79.63256836 212.61376953 C-81.55606008 214.55740426 -83.37335871 216.5673802 -85.14404297 218.65087891 C-87.59116421 221.40463147 -90.36817032 223.79263538 -93.1171875 226.23828125 C-94.93498723 227.899166 -96.74841649 229.56486586 -98.5546875 231.23828125 C-99.15152344 231.70621094 -99.74835938 232.17414063 -100.36328125 232.65625 C-102.23188593 235.13751195 -101.97016625 237.4974511 -102.0546875 240.55078125 C-102.32818576 245.46281008 -102.65013179 249.10487505 -105.5546875 253.23828125 C-109.09408686 255.59788082 -111.0168452 255.86161063 -115.1796875 255.71484375 C-121.25286111 254.49621352 -125.00955742 248.84253124 -128.9921875 244.46875 C-129.60876221 243.79593994 -130.22533691 243.12312988 -130.8605957 242.42993164 C-132.10132802 241.06717064 -133.32943377 239.69279069 -134.54370117 238.30639648 C-137.75724944 234.66298837 -137.75724944 234.66298837 -141.90234375 232.30078125 C-142.77761719 232.28015625 -143.65289062 232.25953125 -144.5546875 232.23828125 C-145.23362061 232.21491699 -145.91255371 232.19155273 -146.61206055 232.16748047 C-149.01141522 232.10371191 -151.40457586 232.10185215 -153.8046875 232.11328125 C-154.63226563 232.10941406 -155.45984375 232.10554687 -156.3125 232.1015625 C-160.24778439 231.71587054 -160.24778439 231.71587054 -163.5546875 233.23828125 C-163.62712803 235.25792324 -163.63845938 237.27995249 -163.6171875 239.30078125 C-163.5965625 241.26015625 -163.5759375 243.21953125 -163.5546875 245.23828125 C-157.2846875 248.53828125 -151.0146875 251.83828125 -144.5546875 255.23828125 C-144.5546875 256.88828125 -144.5546875 258.53828125 -144.5546875 260.23828125 C-146.3046875 261.8203125 -146.3046875 261.8203125 -148.5546875 263.05078125 C-149.2971875 263.46972656 -150.0396875 263.88867188 -150.8046875 264.3203125 C-151.3821875 264.62324219 -151.9596875 264.92617188 -152.5546875 265.23828125 C-151.87616918 269.1935907 -149.97680135 272.19415917 -147.94921875 275.62109375 C-147.58753098 276.23540253 -147.2258432 276.8497113 -146.85319519 277.4826355 C-145.69586758 279.44565582 -144.53161958 281.40446863 -143.3671875 283.36328125 C-142.60306404 284.65728553 -141.83938778 285.95155398 -141.07617188 287.24609375 C-140.70257538 287.8785199 -140.32897888 288.51094604 -139.94406128 289.16253662 C-139.2006395 290.42125839 -138.45821915 291.68057219 -137.71682739 292.94049072 C-136.06614419 295.7352683 -134.39025093 298.49321843 -132.63037109 301.22167969 C-131.7943335 302.52540527 -131.7943335 302.52540527 -130.94140625 303.85546875 C-130.45244873 304.5913623 -129.96349121 305.32725586 -129.4597168 306.08544922 C-128.30417481 308.83418654 -128.73409753 310.42438906 -129.5546875 313.23828125 C-136.29417204 312.98246312 -139.72516371 310.2826852 -144.8046875 306.05078125 C-146.40572895 304.76075488 -148.00865273 303.47306177 -149.61328125 302.1875 C-150.4316748 301.5279834 -151.25006836 300.8684668 -152.09326172 300.18896484 C-155.94034642 297.14014449 -159.89950391 294.25227035 -163.8671875 291.36328125 C-167.09882751 288.99163918 -170.32725085 286.61563969 -173.5546875 284.23828125 C-174.4631543 283.56941895 -175.37162109 282.90055664 -176.30761719 282.21142578 C-179.12735181 280.12699942 -181.9358138 278.02815055 -184.7421875 275.92578125 C-185.60303955 275.29236816 -186.4638916 274.65895508 -187.35083008 274.00634766 C-195.08412806 268.17934127 -201.87082859 261.8021555 -205.9296875 252.86328125 C-207.35213812 249.78792712 -208.67095558 247.06387913 -210.5546875 244.23828125 C-212.76937105 288.40891435 -195.33541073 334.83664192 -169.5546875 370.23828125 C-169.15572266 370.79128906 -168.75675781 371.34429687 -168.34570312 371.9140625 C-162.02880403 380.60107027 -154.98788133 388.49775344 -147.5546875 396.23828125 C-147.06742188 396.75277832 -146.58015625 397.26727539 -146.078125 397.79736328 C-138.49771817 405.78060591 -130.38424357 412.67480224 -121.5546875 419.23828125 C-120.95301758 419.69009766 -120.35134766 420.14191406 -119.73144531 420.60742188 C-112.68165697 425.88061829 -105.66115487 430.68936696 -97.5546875 434.23828125 C-96.35188296 423.08726324 -96.35188296 423.08726324 -98.94921875 412.51171875 C-101.0211428 410.46089373 -103.1407149 408.87182531 -105.5546875 407.23828125 C-107.31391966 405.81209457 -109.06344079 404.37387177 -110.8046875 402.92578125 C-112.19494141 401.81009766 -112.19494141 401.81009766 -113.61328125 400.671875 C-117.80032954 397.20769029 -121.75823058 393.52310598 -125.73046875 389.81640625 C-128.51208654 387.20287122 -128.51208654 387.20287122 -131.54296875 384.94921875 C-138.39450097 379.2786787 -144.13727525 369.40128078 -146.47265625 360.89453125 C-146.76357219 355.296365 -145.19373057 351.66114131 -141.61328125 347.4453125 C-140.4883105 346.23922431 -139.36108608 345.0351666 -138.22314453 343.84130859 C-131.6752482 336.91747765 -127.38347648 332.11025491 -126.99609375 322.11328125 C-126.42854342 318.41667027 -125.19778273 316.8496412 -122.5546875 314.23828125 C-118.55635037 312.2120744 -115.19833272 311.98075782 -110.74829102 311.96362305 C-109.7521579 311.95595665 -109.7521579 311.95595665 -108.73590088 311.94813538 C-106.55170553 311.93429289 -104.36782761 311.93519201 -102.18359375 311.9375 C-100.65811548 311.9336102 -99.13263828 311.92927495 -97.60716248 311.92451477 C-94.41377243 311.91706413 -91.22049297 311.91733548 -88.02709961 311.92260742 C-83.94384468 311.92840144 -79.86104345 311.91146744 -75.7778635 311.88826275 C-72.62848789 311.8734995 -69.47922091 311.8726572 -66.32981682 311.87577248 C-64.82478881 311.87526059 -63.3197545 311.87004788 -61.81476021 311.85996056 C-59.7063701 311.84756219 -57.59885561 311.85440701 -55.49047852 311.8659668 C-54.29310562 311.86533737 -53.09573273 311.86470795 -51.86207581 311.86405945 C-47.37627222 312.37161567 -43.97595584 313.81701291 -40.76953125 317.0234375 C-38.70727875 320.78323546 -38.26624519 324.86674487 -37.49609375 329.046875 C-36.1470092 333.62032759 -33.98266961 336.14205256 -30.234375 339.01953125 C-26.92830595 340.52316616 -24.30186449 340.64316938 -20.6796875 340.73828125 C-14.28965722 341.07952894 -9.2582919 341.35443656 -4.6796875 346.23828125 C-2.00578143 350.99189204 -2.30451801 355.78652198 -2.12890625 361.109375 C-1.32046896 365.5145333 1.02954043 367.2317558 4.6015625 369.77124023 C5.375 370.25407471 6.1484375 370.73690918 6.9453125 371.234375 C7.8233252 371.78681885 8.70133789 372.3392627 9.60595703 372.90844727 C10.54294434 373.49166748 11.47993164 374.0748877 12.4453125 374.67578125 C14.42223637 375.9226043 16.39879031 377.17001404 18.375 378.41796875 C20.39841492 379.69144213 22.42185226 380.96487989 24.4453125 382.23828125 C28.16225232 384.57922063 31.86978459 386.93399673 35.5703125 389.30078125 C36.40433594 389.82406006 37.23835937 390.34733887 38.09765625 390.88647461 C42.25522913 393.55519858 45.85091006 395.91199539 48.4453125 400.23828125 C49.5588955 405.51436071 49.14789617 409.95021118 46.5703125 414.67578125 C43.4978708 417.74822295 39.59125625 419.06137493 35.5546875 420.4765625 C33.48792589 421.05403214 33.48792589 421.05403214 32.4453125 422.23828125 C32.2060628 425.8877886 32.05046117 429.53068295 31.92773438 433.18554688 C31.60790176 440.50548954 31.1264919 448.00561601 25.4453125 453.23828125 C21.79525187 455.03211446 17.99715728 456.09521038 14.0703125 457.11328125 C11.21222017 458.01118932 11.21222017 458.01118932 10.0703125 460.86328125 C9.8640625 461.64703125 9.6578125 462.43078125 9.4453125 463.23828125 C45.18360858 473.37057918 96.08089542 449.83159164 126.55273438 432.91845703 C133.54472394 428.85710725 140.04568469 424.16677285 146.4453125 419.23828125 C147.84910156 418.17867188 147.84910156 418.17867188 149.28125 417.09765625 C156.01536739 411.87181121 162.27053759 406.1046981 168.4453125 400.23828125 C168.98091797 399.73135742 169.51652344 399.22443359 170.06835938 398.70214844 C181.15311313 388.13802224 190.26274649 376.66816188 198.8203125 363.98828125 C199.30830322 363.26809814 199.79629395 362.54791504 200.29907227 361.8059082 C203.81303513 356.49477844 206.70662363 350.98430423 209.4453125 345.23828125 C209.06834229 344.76108643 208.69137207 344.2838916 208.30297852 343.79223633 C201.26668286 334.86645589 194.35915091 325.95296004 188.1171875 316.44921875 C187.56546875 315.71960938 187.01375 314.99 186.4453125 314.23828125 C185.7853125 314.23828125 185.1253125 314.23828125 184.4453125 314.23828125 C182.72409218 316.15024366 181.16898212 318.16499174 179.58984375 320.1953125 C173.9198032 325.59682653 167.46286384 325.81029581 160.0078125 325.86328125 C159.10482422 325.90839844 158.20183594 325.95351563 157.27148438 326 C152.37437281 326.04964487 149.23838881 325.59624023 145.46484375 322.359375 C144.10684946 321.00361737 142.7686661 319.62787201 141.4453125 318.23828125 C139.67937429 316.54708371 137.910986 314.85844216 136.140625 313.171875 C134.28114258 311.34259603 132.42441327 309.51051468 130.5703125 307.67578125 C130.09464844 307.21469971 129.61898438 306.75361816 129.12890625 306.27856445 C127.72724793 304.91963379 126.33999056 303.54589921 124.953125 302.171875 C123.72553467 300.96615845 123.72553467 300.96615845 122.47314453 299.73608398 C118.48040615 294.81798786 118.19061513 290.03035926 118.1796875 283.85546875 C118.17777405 283.15994904 118.1758606 282.46442932 118.17388916 281.74783325 C118.1725343 280.28045285 118.17618173 278.81306018 118.18457031 277.34570312 C118.1951823 275.14033849 118.18470247 272.93580671 118.171875 270.73046875 C118.15156696 252.12647189 121.42847805 235.33973041 134.98828125 221.67578125 C139.99025846 217.04771771 145.21701194 212.71643417 150.57421875 208.5078125 C154.94616886 205.05189003 159.2514477 201.51415325 163.5612793 197.98120117 C165.51347821 196.38847024 167.47680832 194.81080382 169.4453125 193.23828125 C170.14084229 192.67423584 170.83637207 192.11019043 171.55297852 191.52905273 C172.24319092 190.98579346 172.93340332 190.44253418 173.64453125 189.8828125 C174.26158936 189.39143799 174.87864746 188.90006348 175.5144043 188.39379883 C178.43032113 186.6488204 181.06055031 186.46957723 184.40234375 186.72265625 C187.91056057 187.60809529 189.36396217 189.3611205 191.4453125 192.23828125 C192.53788901 194.53800349 193.47427768 196.88282821 194.4453125 199.23828125 C207.67607178 201.03116276 207.67607178 201.03116276 219.76953125 196.66015625 C220.99161942 195.58250694 222.17740656 194.46207086 223.3203125 193.30078125 C223.86647217 192.75719971 224.41263184 192.21361816 224.9753418 191.65356445 C227.09091444 189.20453037 228.34790351 187.3362338 228.63769531 184.06982422 C228.20850539 178.7844298 226.47890997 174.10123172 224.4453125 169.23828125 C223.20394531 169.20089844 221.96257812 169.16351563 220.68359375 169.125 C219.04163739 169.05932175 217.39971163 168.99287505 215.7578125 168.92578125 C214.94119141 168.90322266 214.12457031 168.88066406 213.28320312 168.85742188 C208.59848787 168.64879083 205.18856171 168.35289319 201.4453125 165.23828125 C200.22265625 163.3359375 200.22265625 163.3359375 199.3828125 161.30078125 C197.59030248 157.38461478 195.82321767 154.25738347 191.6953125 152.48828125 C184.22280276 151.57534845 184.22280276 151.57534845 177.4453125 154.23828125 C176.07525052 156.97840521 176.37000422 159.30369128 176.3203125 162.36328125 C175.76465708 169.61061554 173.75804355 172.51781806 168.4453125 177.23828125 C167.44165906 178.18109691 166.44054209 179.12661696 165.44140625 180.07421875 C162.67091378 182.6835733 159.86312374 185.24825488 157.03808594 187.79833984 C155.5972863 189.10088985 154.16529538 190.41316728 152.734375 191.7265625 C135.34065784 207.61136098 135.34065784 207.61136098 126.50390625 207.44921875 C121.89738684 206.97720348 119.19115494 205.02337855 116.0703125 201.73828125 C113.77426034 196.79293813 113.45644831 192.59654534 114.4453125 187.23828125 C115.96864412 184.09389485 118.05715709 181.76748861 120.4453125 179.23828125 C121.98932845 177.55293051 123.53089025 175.86532897 125.0703125 174.17578125 C126.21693359 172.92474609 126.21693359 172.92474609 127.38671875 171.6484375 C129.92824408 168.67287558 131.70009438 165.72871748 133.4453125 162.23828125 C132.22328125 161.02011719 132.22328125 161.02011719 130.9765625 159.77734375 C126.68632524 153.77403288 127.85267507 145.68106158 127.9453125 138.61328125 C127.98408511 135.64113788 127.99024559 132.67153296 127.9765625 129.69921875 C127.99267578 128.38743652 128.00878906 127.0756543 128.02539062 125.72412109 C127.29638174 121.3433177 125.87204761 119.97111954 122.4453125 117.23828125 C120.58402397 116.05467843 120.58402397 116.05467843 118.703125 115.31640625 C118.0330542 115.01871338 117.3629834 114.72102051 116.67260742 114.41430664 C115.9788501 114.10871826 115.28509277 113.80312988 114.5703125 113.48828125 C107.52151127 110.13174685 103.55649242 106.97837895 99.4453125 100.23828125 C98.5116968 98.86624815 97.57235115 97.49810544 96.62890625 96.1328125 C95.60726777 94.62773031 94.5877519 93.12120521 93.5703125 91.61328125 C93.08071045 90.89664307 92.5911084 90.18000488 92.08666992 89.44165039 C89.21488552 85.04655843 87.64237195 81.624573 87.4453125 76.23828125 C88.97683918 70.68649703 91.14770498 68.23937943 95.921875 65.37890625 C97.76690548 64.22331035 97.76690548 64.22331035 98.4453125 61.23828125 C94.51926592 55.41690184 88.96023921 51.47881274 83.4453125 47.23828125 C82.88682617 46.64869629 82.32833984 46.05911133 81.75292969 45.45166016 C74.32055994 38.297595 65.8749683 39.32912685 56.1953125 39.48828125 C53.7391222 39.50709339 51.28370612 39.51575618 48.82745361 39.50799561 C47.30814163 39.50533509 45.78868644 39.51884065 44.26971436 39.55108643 C39.801438 39.56918188 36.92750635 39.10861469 33.4453125 36.23828125 C32.14331055 34.15356445 32.14331055 34.15356445 31.20703125 31.7890625 C30.86220703 30.94150391 30.51738281 30.09394531 30.16210938 29.22070312 C29.82244141 28.33962891 29.48277344 27.45855469 29.1328125 26.55078125 C28.59430664 25.21176758 28.59430664 25.21176758 28.04492188 23.84570312 C27.16372219 21.64857858 26.29794656 19.446613 25.4453125 17.23828125 C-11.50886816 13.05051805 -50.32725792 22.26754418 -83.5546875 38.23828125 Z M-203.5546875 181.23828125 C-204.42348329 184.98504685 -205.27215993 188.73608985 -206.1171875 192.48828125 C-206.36404297 193.55175781 -206.61089844 194.61523438 -206.86523438 195.7109375 C-207.09404297 196.73574219 -207.32285156 197.76054687 -207.55859375 198.81640625 C-207.77330322 199.7590332 -207.9880127 200.70166016 -208.20922852 201.67285156 C-208.55378736 204.23159664 -208.3746695 205.81572044 -207.5546875 208.23828125 C-207.34070313 207.6659375 -207.12671875 207.09359375 -206.90625 206.50390625 C-205.09256734 203.46362896 -202.82181531 202.00604484 -199.9296875 199.98828125 C-198.92679688 199.281875 -197.92390625 198.57546875 -196.890625 197.84765625 C-196.11976563 197.3165625 -195.34890625 196.78546875 -194.5546875 196.23828125 C-195.10668396 191.98330857 -196.55430147 189.38430701 -199.0546875 185.92578125 C-199.68375 185.04277344 -200.3128125 184.15976563 -200.9609375 183.25 C-201.486875 182.58613281 -202.0128125 181.92226562 -202.5546875 181.23828125 C-202.8846875 181.23828125 -203.2146875 181.23828125 -203.5546875 181.23828125 Z " fill="#000000" transform="translate(243.5546875,15.76171875)"/>
<path d="M0 0 C4.09798124 0.50492983 7.831094 1.24236951 11.734375 2.6015625 C18.62643116 4.71988628 25.46632295 4.54788108 32.6171875 4.609375 C42.74679619 4.82735392 42.74679619 4.82735392 47.1875 8.08203125 C50.66849551 12.48048914 51.69741281 15.39974645 51.71875 20.984375 C51.72648437 22.93827148 51.72648437 22.93827148 51.734375 24.93164062 C51.72180664 25.93940552 51.72180664 25.93940552 51.70898438 26.9675293 C51.68758444 29.01146611 51.70880564 31.05187537 51.734375 33.09570312 C51.70553413 40.38883686 51.63337751 45.23371433 47.1875 51.08203125 C46.09483053 52.63656304 45.00240296 54.19126488 43.91015625 55.74609375 C42.69404243 57.40263798 41.47390864 59.05623772 40.25 60.70703125 C39.64220703 61.53976563 39.03441406 62.3725 38.40820312 63.23046875 C28.5963365 76.52464835 28.5963365 76.52464835 22.91796875 77.453125 C18.38430967 77.57151548 15.77756316 77.41461231 11.75 75.14453125 C6.69369838 69.10163419 5.48520212 60.72282035 3.70703125 53.17578125 C3.48931564 52.25220825 3.27160004 51.32863525 3.04728699 50.3770752 C2.59176288 48.4313683 2.13894648 46.48502566 1.6887207 44.53808594 C1.23245819 42.57976389 0.76803644 40.62332354 0.29516602 38.66894531 C-2.63743343 26.54548709 -5.27506792 14.61328971 -3.8125 2.08203125 C-1.8125 0.08203125 -1.8125 0.08203125 0 0 Z " fill="#000000" transform="translate(250.8125,66.91796875)"/>
</svg>
